# xmcd
#
# Track frame offsets: 
#        150
#        22168
#        32846
#        43861
#        63971
#        65552
#        81422
#        96805
#        115901
#        137593
#        153209
#        169740
#        196212
#        226067
#        241461
#        259555
#
# Disc length: 3697 seconds
#
# Revision: 0
# Processed by: cddbd v1.5.2PL0 Copyright (c) Steve Scherf et al.
# Submitted via: ExactAudioCopy v0.99pb3
#
DISCID=d40e6f10
DTITLE=Mudcat - Get Your House In Order
DYEAR=2007
DGENRE=Blues
TTITLE0=Get Your House In Order
TTITLE1=Whiskey Angel
TTITLE2=Pressure
TTITLE3=Don'T Let Nobody Drag Your Spirit Down
TTITLE4=Angels Sing
TTITLE5=Agradesco a Dios
TTITLE6=Gone
TTITLE7=Cold Rainy Day
TTITLE8=Odious Plot
TTITLE9=When The Lights Go Out
TTITLE10=Take Peace In Your Heart
TTITLE11=Jiggaro
TTITLE12=The Pistol Song
TTITLE13=Trouble
TTITLE14=Woman in Love
TTITLE15=Agradezco Acustica
EXTD=
EXTT0=
EXTT1=
EXTT2=
EXTT3=
EXTT4=
EXTT5=
EXTT6=
EXTT7=
EXTT8=
EXTT9=
EXTT10=
EXTT11=
EXTT12=
EXTT13=
EXTT14=
EXTT15=
PLAYORDER=
